<?xml version="1.0" encoding="utf-8" standalone="no"?><!DOCTYPE svg PUBLIC "-//W3C//DTD SVG 20010904//EN" "http://www.w3.org/TR/2001/REC-SVG-20010904/DTD/svg10.dtd"><svg xmlns="http://www.w3.org/2000/svg" width="412" height="346" xmlns:xlink="http://www.w3.org/1999/xlink"><source><![CDATA[Title: Auth0 Proxy
Bob->Proxy: /oauth/token
Proxy-->Auth0: is token expired? 
Auth0-->Proxy: Token
Proxy->Bob: Cached token]]></source><desc>Auth0 Proxy</desc><defs><marker viewBox="0 0 5 5" markerWidth="5" markerHeight="5" orient="auto" refX="5" refY="2.5" id="markerArrowBlock"><path d="M 0 0 L 5 2.5 L 0 5 z"></path></marker><marker viewBox="0 0 9.6 16" markerWidth="4" markerHeight="16" orient="auto" refX="9.6" refY="8" id="markerArrowOpen"><path d="M 9.6,8 1.92,16 0,13.7 5.76,8 0,2.286 1.92,0 9.6,8 z"></path></marker></defs><g class="title"><path d="M10,10C102.8,4.9 107.3,15.1 138.0,10.0C136.7,18.2 139.3,34.6 138.0,42.3C40.7,37.2 52.5,47.4 10.0,42.3C8.7,25.9 11.3,37.2 10.0,10.0" stroke="#000000" fill="#ffffff" style="stroke-width: 2px;"></path><text x="15" y="28.765625" style="font-size: 16px; font-family: danielbd;"><tspan x="15">Auth0 Proxy</tspan></text></g><g class="actor"><path d="M10,52.328125C18.9,54.6 27.0,50.1 65.6,52.3C67.3,74.3 63.9,68.4 65.6,94.7C28.7,96.9 20.5,92.4 10.0,94.7C8.3,87.9 11.7,59.1 10.0,52.3" stroke="#000000" fill="#ffffff" style="stroke-width: 2px;"></path><text x="20" y="76.09375" style="font-size: 16px; font-family: danielbd;"><tspan x="20">Bob</tspan></text></g><g class="actor"><path d="M10,283.96875C49.7,286.2 23.4,281.7 65.6,284.0C63.9,307.6 67.3,300.7 65.6,326.3C43.9,328.5 49.8,324.1 10.0,326.3C8.3,294.1 11.7,316.1 10.0,284.0" stroke="#000000" fill="#ffffff" style="stroke-width: 2px;"></path><text x="20" y="307.734375" style="font-size: 16px; font-family: danielbd;"><tspan x="20">Bob</tspan></text></g><path d="M37.8,94.7C30.2,124.9 45.4,248.9 37.8,284.0" stroke="#000000" fill="none" style="stroke-width: 2px;"></path><g class="actor"><path d="M141.6640625,52.328125C198.7,49.5 153.0,55.2 212.3,52.3C214.0,80.9 210.6,84.5 212.3,94.7C195.3,91.8 163.5,97.5 141.7,94.7C143.4,62.5 140.0,59.1 141.7,52.3" stroke="#000000" fill="#ffffff" style="stroke-width: 2px;"></path><text x="151.6640625" y="76.09375" style="font-size: 16px; font-family: danielbd;"><tspan x="151.6640625">Proxy</tspan></text></g><g class="actor"><path d="M141.6640625,283.96875C201.0,286.8 153.0,281.1 212.3,284.0C210.6,290.7 214.0,297.4 212.3,326.3C201.0,329.1 195.3,323.5 141.7,326.3C143.4,310.8 140.0,311.1 141.7,284.0" stroke="#000000" fill="#ffffff" style="stroke-width: 2px;"></path><text x="151.6640625" y="307.734375" style="font-size: 16px; font-family: danielbd;"><tspan x="151.6640625">Proxy</tspan></text></g><path d="M177.0,94.7C184.5,217.1 169.4,231.4 177.0,284.0" stroke="#000000" fill="none" style="stroke-width: 2px;"></path><g class="actor"><path d="M303.375,52.328125C329.3,55.5 330.9,49.2 382.8,52.3C384.5,79.1 381.1,66.4 382.8,94.7C370.1,97.8 339.4,91.5 303.4,94.7C305.1,62.5 301.7,60.9 303.4,52.3" stroke="#000000" fill="#ffffff" style="stroke-width: 2px;"></path><text x="313.375" y="76.09375" style="font-size: 16px; font-family: danielbd;"><tspan x="313.375">Auth0</tspan></text></g><g class="actor"><path d="M303.375,283.96875C341.6,280.8 333.8,287.1 382.8,284.0C381.1,295.1 384.5,314.9 382.8,326.3C322.4,329.5 353.9,323.1 303.4,326.3C301.7,315.7 305.1,292.3 303.4,284.0" stroke="#000000" fill="#ffffff" style="stroke-width: 2px;"></path><text x="313.375" y="307.734375" style="font-size: 16px; font-family: danielbd;"><tspan x="313.375">Auth0</tspan></text></g><path d="M343.1,94.7C335.5,124.9 350.6,140.1 343.1,284.0" stroke="#000000" fill="none" style="stroke-width: 2px;"></path><g class="signal"><text x="47.7890625" y="122.2578125" style="font-size: 16px; font-family: danielbd;"><tspan x="47.7890625">/oauth/token</tspan></text><path d="M37.8,137.0C71.2,142.6 116.9,131.4 177.0,137.0" stroke="#000000" fill="none" style="stroke-width: 2px; marker-end: url(&quot;#markerArrowBlock&quot;);"></path></g><g class="signal"><text x="186.9765625" y="164.5859375" style="font-size: 16px; font-family: danielbd;"><tspan x="186.9765625">is token expired?</tspan></text><path d="M177.0,179.3C250.7,186.0 279.9,172.7 343.1,179.3" stroke="#000000" fill="none" style="stroke-width: 2px; stroke-dasharray: 6px, 2px; marker-end: url(&quot;#markerArrowBlock&quot;);"></path></g><g class="signal"><text x="235.3515625" y="206.9140625" style="font-size: 16px; font-family: danielbd;"><tspan x="235.3515625">Token</tspan></text><path d="M343.1,221.6C303.2,228.3 275.9,215.0 177.0,221.6" stroke="#000000" fill="none" style="stroke-width: 2px; stroke-dasharray: 6px, 2px; marker-end: url(&quot;#markerArrowBlock&quot;);"></path></g><g class="signal"><text x="47.96875" y="249.2421875" style="font-size: 16px; font-family: danielbd;"><tspan x="47.96875">Cached token</tspan></text><path d="M177.0,264.0C113.4,258.4 85.7,269.5 37.8,264.0" stroke="#000000" fill="none" style="stroke-width: 2px; marker-end: url(&quot;#markerArrowBlock&quot;);"></path></g></svg>